<svg id="Capa_1" data-name="Capa 1" xmlns="http://www.w3.org/2000/svg" viewBox="0 0 423.29 567.46"><defs><style>.cls-1{fill:#cfe09d;}.cls-2{font-size:418.3px;fill:#79bd9b;font-family:NiagaraEngraved-Reg, Niagara Engraved;}</style></defs><path class="cls-1" d="M434.67,309.33a32.08,32.08,0,0,0-30-24.36c-11.86-.36-24.8,5.82-30.17,19.68-1.05,2.69-1.92,4.4-5.69,4.36-26-.27-51.91-.19-77.86-.08-3.12,0-4.08-.67-4.82-4q-.48-2.17-1.05-4.26c.41,6.5.85,13,.83,19.54,0,3.23-.08,6.47-.19,9.7,1.14-4.67,3.08-5.33,7.41-5.3q37.11.33,74.23,0c3.91,0,5.71.95,7.26,4.75a31.32,31.32,0,0,0,39.07,17.76C429.25,341.87,438.54,325.13,434.67,309.33Zm-31.2,23.47c-8.22-.19-15.6-7.74-15.6-15.94a15.51,15.51,0,0,1,15.65-15.47c8.89-.06,15.66,6.49,15.74,15.24S412,333,403.47,332.8Z" transform="translate(-12.26 -16.27)"/><path class="cls-1" d="M277.07,61.34c-1.13-24.34-23.18-50-56.65-44.26-21.5,3.67-36.83,21.25-38.65,43.87a46.27,46.27,0,0,0,16.59,39.33,95.68,95.68,0,0,1,5.14-8.57c2.3-3.43,6.69-2.56,8.58-.09.3-.24.6-.48.9-.7-9.12-5.47-15-15.53-14.82-27.43.2-17.77,14.39-31.35,32.45-31.08,16.75.26,30.65,14.89,30.49,32.12a30.87,30.87,0,0,1-17.28,27.4c.32.17.64.34,1,.54a11.87,11.87,0,0,1,1.53,1.18c1.26-3,5.21-4.88,8.05-1.82,2.33,2.51,4.76,5.18,6.1,8.3A48.32,48.32,0,0,0,277.07,61.34Z" transform="translate(-12.26 -16.27)"/><path class="cls-1" d="M276,320.17c0-11.74-1.42-23.41-1.51-35.14a4.49,4.49,0,0,1,2.1-4,57.35,57.35,0,0,0-24.84-21.16c5.16,6.91,8,16.33,9.63,23.87a4.9,4.9,0,0,1-.3,3.17A48.26,48.26,0,0,1,271.32,317a47.08,47.08,0,0,1-9.38,28.59c.13.11.26.22.38.34,2.06,2.06,1.69,5,0,7.07-3.15,3.93-5.59,8.41-8.31,12.63a6.72,6.72,0,0,1-.49.64,18.59,18.59,0,0,1-3.71,5.3,5.09,5.09,0,0,1-7.07,0,4.41,4.41,0,0,1-1.29-2.32,28.64,28.64,0,0,1-9.89,5.15c-6.46,1.93-11.91,0-16.78-3.64a5.55,5.55,0,0,1-3.49-1.47c.84.65,0,.06-.15-.06s-.46-.31-.7-.45c-.46-.3-.94-.59-1.42-.87l-.87-.54,0,0c-2,2.05-5,1.7-7.07,0a87,87,0,0,1-13.83-13.64c-1.61-2.06-2.06-4.77-.21-6.84a45,45,0,0,1-10.45-30.41c-.82-22.31,17.55-47.11,47.24-47.18a48.93,48.93,0,0,1,17.16,3c-.34-.65-.69-1.3-1.06-1.94a82.24,82.24,0,0,1-6.18-12.07c-7.36-6.51-11.08-15.79-15.53-24.36-.74-1.43-1.59-2.85-2.46-4.26q0,9.64,0,19.29c0,2.54.62,5.15-3.49,5.63a49.57,49.57,0,0,0-23.05,9.16c-3.38,2.4-5.18,1.93-7.93-.86q-24.56-25-49.51-49.51c-2.92-2.86-3.46-4.74-1.24-8.47,6.52-10.94,7.92-22.9,4.67-35.18-5.31-20.13-21.67-33.24-44-35.63-16.25-1.74-35.58,9.08-44.11,25-6.32,11.8-7.67,24.2-3.54,37.09a47.5,47.5,0,0,0,69.05,27.07c2-1.15,3.67-2.74,6.19-.19,17.39,17.61,34.94,35.06,52.45,52.54,1.37,1.38,2.36,2.47.8,4.56a58.92,58.92,0,0,0-10.74,25.64c-.57,3.19-2.26,3-4.52,3q-38.94,0-77.87,0c-3,0-4.34-.64-5.47-3.86C69,292.21,53.33,282.39,38.17,285.7c-14.44,3.16-25.09,15.24-25.86,29.08-.83,15.06,9,29.89,26.4,33.62,13.24,2.83,28.45-5.26,34.13-18.65,1.62-3.83,3.47-5.23,7.76-5.19,24.94.24,49.89.29,74.84,0,4.48-.06,5.77,1.64,6.59,5.34,6,26.92,22.65,43.16,49.48,49,3.09.68,4.27,1.93,4.26,5.21q-.15,50.1,0,100.2c0,2.57.09,4.18-3.57,4.62-21.67,2.56-37.53,18-41.32,40.51-2.5,14.81,4.33,40.42,25.93,49.39,11,4.58,22,6.64,33.74,3.21,19.78-5.78,34-22.32,35.37-41.55,1.53-21.68-9.87-40.48-29.89-48.64-2.94-1.2-4-2.38-4-5.5q.15-51.3,0-102.61c0-3.1,1.2-4.21,3.94-4.78,16.79-3.51,29.56-11.21,38.28-23a5.75,5.75,0,0,1,0-1C275.15,343.37,275.91,331.78,276,320.17ZM88.24,213.58c-14.71-.46-31-11.48-30.8-31.79.22-21,17.42-32,31.83-31.15,14.39-.61,31.5,10.67,31.31,31.6C120.38,203.82,102.44,214,88.24,213.58Zm-44,119.25C35.94,333,28,325,28.14,316.66a15.75,15.75,0,0,1,16-15.29,15,15,0,0,1,15.45,15.47A15.81,15.81,0,0,1,44.22,332.83ZM249.82,535.7c.32,19.85-15.55,32-31.27,31.67-15,.68-31.59-10.35-31.87-31.1-.26-19.63,15-31.52,31.28-31.81C232.39,504.2,249.49,514.42,249.82,535.7Z" transform="translate(-12.26 -16.27)"/><text class="cls-2" transform="matrix(1, 0.01, -0.01, 1, 156.16, 360.75)">S</text><text class="cls-2" transform="translate(238.57 439.03)">L</text></svg>